<?xml version="1.0" encoding="utf-8"?>
<!-- Generator: Adobe Illustrator 24.1.0, SVG Export Plug-In . SVG Version: 6.00 Build 0)  -->
<svg version="1.1" id="Layer_1" xmlns="http://www.w3.org/2000/svg" xmlns:xlink="http://www.w3.org/1999/xlink" x="0px" y="0px"
	 viewBox="0 0 227.7 425" style="enable-background:new 0 0 227.7 425;" xml:space="preserve">
<style type="text/css">
	.st0{fill-rule:evenodd;clip-rule:evenodd;fill:#51BB7F;}
</style>
<g>
	<path class="st0" d="M113.8,0c62.9,0,113.8,51,113.8,113.8c0,44.4-62.3,152.5-98.8,217.3c-6.6,11.7-23.5,11.7-30.1,0
		C62.3,266.3,0,158.3,0,113.8C0,51,51,0,113.8,0L113.8,0z M113.8,70.1c24.1,0,43.7,19.6,43.7,43.7c0,24.1-19.6,43.7-43.7,43.7
		S70.1,138,70.1,113.8C70.1,89.7,89.7,70.1,113.8,70.1z"/>
</g>
</svg>
